<?xml version="1.0" standalone="no"?>
<!DOCTYPE svg PUBLIC "-//W3C//DTD SVG 20010904//EN"
 "http://www.w3.org/TR/2001/REC-SVG-20010904/DTD/svg10.dtd">
<svg version="1.0" xmlns="http://www.w3.org/2000/svg"
 width="500.000000pt" height="500.000000pt" viewBox="0 0 500.000000 500.000000"
 preserveAspectRatio="xMidYMid meet">

<g transform="translate(0.000000,500.000000) scale(0.100000,-0.100000)"
fill="#000000" stroke="none">
<path d="M430 3071 c0 -378 3 -481 13 -481 39 -1 229 -31 268 -43 51 -16 124
-60 219 -135 l65 -51 3 477 3 477 -73 68 c-125 117 -196 145 -410 161 l-88 7
0 -480z"/>
<path d="M1545 3543 c-27 -1 -90 -10 -138 -19 -98 -19 -157 -51 -259 -144
l-58 -52 0 -479 c0 -263 4 -479 8 -479 5 0 17 9 27 20 22 25 148 112 200 138
49 24 128 41 237 50 l83 7 3 483 2 482 -27 -2 c-16 -1 -50 -3 -78 -5z"/>
<path d="M310 2995 l0 -475 23 -5 c281 -63 371 -93 525 -176 50 -28 92 -48 92
-46 0 2 -5 19 -12 38 -15 42 -31 56 -143 118 -98 55 -175 77 -315 89 l-85 7
-3 463 -2 462 -40 0 -40 0 0 -475z"/>
<path d="M1688 3008 l-3 -463 -30 -2 c-187 -15 -275 -39 -384 -103 -88 -51
-116 -76 -129 -117 l-11 -32 138 69 c134 67 234 101 396 135 44 10 86 19 93
21 9 3 12 107 12 479 l0 475 -40 0 -40 0 -2 -462z"/>
<path d="M2348 3402 l-47 -3 -5 -42 c-8 -61 -26 -339 -26 -398 l0 -50 63 3 62
3 3 92 3 92 32 6 c18 4 40 9 49 11 16 5 17 -4 11 -95 l-6 -101 65 0 65 0 8
208 c4 114 8 223 9 242 l1 35 -60 0 -60 0 -2 -60 c-2 -33 -5 -75 -8 -92 -6
-32 -8 -33 -52 -33 l-46 0 5 89 c4 62 2 91 -6 93 -6 2 -32 2 -58 0z"/>
<path d="M3928 3403 c-27 -2 -48 -7 -48 -11 0 -4 -7 -99 -15 -212 -8 -113 -15
-220 -15 -237 l0 -33 65 0 65 0 0 90 c0 98 2 101 69 114 l34 6 -8 -100 -7
-100 65 0 65 0 6 113 c3 61 7 171 8 242 l3 130 -57 3 -57 3 -5 -33 c-4 -18 -7
-60 -9 -93 l-2 -60 -49 -3 -48 -3 3 92 c3 56 0 93 -6 94 -5 0 -31 0 -57 -2z"/>
<path d="M2044 3386 c-60 -26 -103 -111 -90 -179 7 -37 25 -56 110 -115 36
-25 47 -38 44 -55 -4 -30 -48 -34 -99 -9 l-40 20 -20 -31 c-10 -18 -18 -39
-16 -47 3 -21 69 -50 127 -57 89 -10 161 36 176 112 12 67 -3 92 -123 192 -34
28 -37 34 -28 60 15 41 39 36 43 -9 l3 -38 55 0 54 0 0 51 c0 28 -5 59 -10 70
-25 45 -121 63 -186 35z m146 -360 c0 -3 -4 -8 -10 -11 -5 -3 -10 -1 -10 4 0
6 5 11 10 11 6 0 10 -2 10 -4z"/>
<path d="M2752 3390 c-29 -4 -55 -10 -56 -11 -2 -2 -9 -87 -15 -189 -6 -102
-14 -204 -17 -227 l-5 -43 60 0 61 0 0 69 c0 54 3 70 16 75 24 9 35 -4 74 -83
18 -39 37 -71 40 -71 3 0 27 14 54 30 l47 30 -36 70 -37 69 34 41 c31 39 33
47 33 116 0 67 -2 76 -28 101 -24 25 -35 28 -100 30 -39 1 -96 -2 -125 -7z
m142 -133 c-9 -31 -44 -65 -76 -72 -26 -7 -28 -5 -28 23 0 52 16 80 47 84 42
6 65 -9 57 -35z"/>
<path d="M3228 3393 c-29 -7 -189 -447 -172 -474 8 -14 124 -11 128 4 3 6 7
24 10 39 5 22 14 28 56 37 28 6 53 11 55 11 2 0 5 -21 7 -47 l3 -48 68 -3 c44
-2 67 1 67 8 0 26 -62 352 -75 395 -20 67 -40 85 -89 84 -23 -1 -49 -3 -58 -6z
m61 -265 c1 -13 -7 -18 -24 -18 -30 0 -30 2 -8 66 l17 49 7 -40 c5 -22 8 -48
8 -57z m-68 5 c-12 -20 -14 -14 -5 12 4 9 9 14 11 11 3 -2 0 -13 -6 -23z m175
-152 l7 -34 -22 22 c-15 15 -20 29 -16 43 9 26 23 12 31 -31z"/>
<path d="M3545 3386 l-40 -12 -6 -84 c-4 -47 -10 -151 -14 -232 l-7 -148 64 0
c97 0 136 15 193 73 61 62 85 128 85 228 0 82 -16 125 -59 162 -29 24 -40 27
-104 26 -40 0 -90 -6 -112 -13z m146 -112 c20 -25 16 -112 -9 -166 -23 -53
-66 -83 -82 -58 -5 8 -7 24 -5 35 4 16 10 97 15 187 0 7 24 15 51 17 9 0 23
-6 30 -15z"/>
<path d="M4411 3381 c-24 -24 -95 -203 -137 -346 -37 -126 -36 -128 48 -123
51 3 53 4 61 40 7 32 13 37 45 43 20 3 44 8 53 11 13 4 18 -6 23 -46 l7 -50
64 0 c55 0 65 3 65 18 0 26 -47 287 -66 364 -20 85 -41 108 -99 108 -31 0 -51
-6 -64 -19z m68 -238 c1 -29 -2 -33 -25 -33 -19 0 -25 4 -21 14 3 8 11 34 18
58 11 40 13 41 20 18 4 -14 7 -40 8 -57z m-48 30 c-12 -20 -14 -14 -5 12 4 9
9 14 11 11 3 -2 0 -13 -6 -23z m-11 -31 c0 -5 -7 -17 -15 -28 -14 -18 -14 -17
-4 9 12 27 19 34 19 19z m168 -154 c6 -23 10 -44 8 -45 -8 -8 -45 58 -40 71
10 27 21 18 32 -26z"/>
<path d="M210 2916 l0 -474 68 -7 c119 -12 197 -32 382 -99 99 -36 183 -66
187 -66 4 0 -4 12 -18 26 -27 30 -169 100 -269 133 -36 11 -117 27 -180 34
l-115 13 -3 457 -2 457 -25 0 -25 0 0 -474z"/>
<path d="M1820 2930 l0 -460 -42 0 c-170 0 -505 -116 -531 -183 -6 -15 44 0
330 104 49 18 120 30 246 44 l57 6 0 475 0 474 -30 0 -30 0 0 -460z"/>
<path d="M2657 2809 c-27 -16 -57 -87 -57 -137 0 -93 59 -139 125 -96 31 20
45 63 45 136 0 49 -4 63 -25 83 -26 26 -58 31 -88 14z m53 -97 c0 -61 -9 -92
-25 -92 -19 0 -27 33 -19 77 15 84 44 94 44 15z"/>
<path d="M2841 2804 c-32 -23 -51 -74 -51 -139 0 -46 4 -60 25 -80 62 -63 145
3 145 115 0 100 -55 148 -119 104z m57 -105 c-4 -62 -18 -87 -38 -74 -9 5 -11
25 -7 62 10 100 52 110 45 12z"/>
<path d="M3090 2785 c-41 -43 -48 -43 -42 -5 4 28 2 30 -26 30 -36 0 -42 -20
-42 -156 l0 -94 29 0 c28 0 30 2 33 48 l3 47 22 -35 c45 -70 40 -66 62 -46 27
24 26 33 -8 81 l-29 40 34 37 c39 44 40 49 16 71 -17 16 -20 15 -52 -18z"/>
<path d="M3697 2809 c-30 -18 -50 -71 -51 -136 -1 -52 3 -65 23 -87 26 -27 59
-33 92 -16 32 18 52 70 53 138 1 58 -2 66 -27 88 -30 25 -61 30 -90 13z m58
-72 c8 -43 -11 -117 -30 -117 -11 0 -15 13 -15 49 0 88 33 136 45 68z"/>
<path d="M2443 2803 c-19 -4 -22 -13 -28 -71 -3 -37 -8 -91 -11 -119 l-5 -53
66 0 c57 0 69 3 90 25 27 26 31 54 15 86 -8 14 -7 25 5 41 20 30 19 54 -5 78
-20 20 -68 25 -127 13z m77 -63 c0 -11 -40 -34 -47 -26 -3 3 -3 12 0 21 7 16
47 21 47 5z m-14 -91 c3 -6 0 -15 -7 -20 -22 -14 -29 -11 -29 11 0 21 24 27
36 9z"/>
<path d="M3311 2784 c-12 -15 -21 -40 -21 -55 0 -28 10 -41 60 -79 20 -15 22
-21 13 -31 -10 -10 -18 -10 -39 0 -22 10 -29 9 -35 -1 -14 -22 -10 -34 16 -46
53 -24 99 -13 120 29 19 35 12 55 -37 101 -22 21 -37 42 -33 48 10 16 22 12
28 -11 4 -15 12 -20 29 -17 29 4 35 31 14 63 -24 36 -87 35 -115 -1z"/>
<path d="M3450 2774 c0 -35 1 -35 31 -29 l32 7 -7 -97 -7 -96 33 3 33 3 3 85
c4 105 5 110 37 110 20 0 25 5 25 25 0 25 -1 25 -90 25 l-90 0 0 -36z"/>
<path d="M3851 2788 c-5 -13 -10 -68 -12 -123 l-4 -100 28 -3 c26 -3 27 -1 27
37 0 54 21 54 45 1 20 -45 22 -46 53 -24 22 15 22 15 3 52 -19 37 -19 38 0 61
23 28 25 84 3 105 -10 11 -34 16 -75 16 -53 0 -60 -3 -68 -22z m99 -42 c0 -16
-26 -46 -41 -46 -14 0 -11 48 4 53 23 10 37 7 37 -7z"/>
<path d="M4047 2803 c-3 -5 -8 -61 -12 -125 l-7 -118 33 0 c19 0 58 3 87 6 49
6 52 8 52 35 0 28 -2 29 -50 29 -38 0 -50 4 -50 15 0 9 9 15 24 15 40 0 56 11
56 36 0 21 -4 24 -40 24 -29 0 -40 4 -40 15 0 11 11 15 39 15 55 0 71 8 71 36
0 23 -2 24 -79 24 -44 0 -82 -3 -84 -7z"/>
</g>
</svg>
