<?xml version="1.0" standalone="no"?>
<!DOCTYPE svg PUBLIC "-//W3C//DTD SVG 20010904//EN"
 "http://www.w3.org/TR/2001/REC-SVG-20010904/DTD/svg10.dtd">
<svg version="1.0" xmlns="http://www.w3.org/2000/svg"
 width="500.000000pt" height="500.000000pt" viewBox="0 0 500.000000 500.000000"
 preserveAspectRatio="xMidYMid meet">

<g transform="translate(0.000000,500.000000) scale(0.100000,-0.100000)"
fill="#000000" stroke="none">
<path d="M430 3071 c0 -378 3 -481 13 -481 39 -1 229 -31 268 -43 51 -16 124
-60 219 -135 l65 -51 3 477 3 477 -73 68 c-125 117 -196 145 -410 161 l-88 7
0 -480z"/>
<path d="M1545 3543 c-27 -1 -90 -10 -138 -19 -98 -19 -157 -51 -259 -144
l-58 -52 0 -479 c0 -263 4 -479 8 -479 5 0 17 9 27 20 22 25 148 112 200 138
49 24 128 41 237 50 l83 7 3 483 2 482 -27 -2 c-16 -1 -50 -3 -78 -5z"/>
<path d="M310 2995 l0 -475 23 -5 c281 -63 371 -93 525 -176 50 -28 92 -48 92
-46 0 2 -5 19 -12 38 -15 42 -31 56 -143 118 -98 55 -175 77 -315 89 l-85 7
-3 463 -2 462 -40 0 -40 0 0 -475z"/>
<path d="M1688 3008 l-3 -463 -30 -2 c-187 -15 -275 -39 -384 -103 -88 -51
-116 -76 -129 -117 l-11 -32 138 69 c134 67 234 101 396 135 44 10 86 19 93
21 9 3 12 107 12 479 l0 475 -40 0 -40 0 -2 -462z"/>
<path d="M210 2916 l0 -474 68 -7 c119 -12 197 -32 382 -99 99 -36 183 -66
187 -66 4 0 -4 12 -18 26 -27 30 -169 100 -269 133 -36 11 -117 27 -180 34
l-115 13 -3 457 -2 457 -25 0 -25 0 0 -474z"/>
<path d="M1820 2930 l0 -460 -42 0 c-170 0 -505 -116 -531 -183 -6 -15 44 0
330 104 49 18 120 30 246 44 l57 6 0 475 0 474 -30 0 -30 0 0 -460z"/>
</g>
</svg>
